<svg width="100" height="100" viewBox="0 0 100 100" fill="none" xmlns="http://www.w3.org/2000/svg">
<g id="Logo" clip-path="url(#clip0_23_160)">
<g id="SVGRepo_iconCarrier">
<g id="Group">
<path id="Vector" d="M97.9596 42.8594C96.8193 41.7889 95.1707 41.4566 93.7043 42.0041L84.9133 45.2842C84.9269 45.2387 84.9406 45.1918 84.9541 45.1477C86.3326 42.1437 87.1076 38.8059 87.1076 35.2846C87.1076 22.2154 76.5119 11.6197 63.4428 11.6197C53.4824 11.6197 45.2465 18.9822 42.0467 25.2848C41.381 26.5967 38.084 29.4353 34.4066 27.1121C30.7291 24.7904 28.3056 20.6002 25.6959 16.4648C22.2109 10.948 15.7234 12.6494 13.5004 18.2074C8.27342 31.2734 -7.45568 39.5822 4.20916 40.565C11.1773 41.1533 16.1135 37.3713 18.1457 35.9201C20.1793 34.4687 17.5648 41.1475 21.6305 42.0178C25.5627 42.8594 26.0176 37.9277 29.6512 43.1611C24.8605 50.9998 16.8762 55.9361 8.96326 61.2816C0.781818 66.8092 -0.913689 72.2428 12.9547 69.8558C18.9644 68.8201 19.5258 70.1879 16.7777 71.7074C14.1801 73.1449 7.93201 75.6881 4.02713 76.959C0.299592 78.1736 1.24119 84.1562 10.4418 83.307C17.5967 82.6473 24.2539 82.5017 29.04 80.9428C32.9435 79.6721 34.2976 80.8094 29.0703 82.9385C17.4133 87.6881 31.6847 93.3916 55.8939 80.4424C65.0232 75.5592 71.2666 70.1439 75.9933 63.6685C76.7926 64.6041 77.989 65.1092 79.7679 64.1828C84.1992 61.8762 86.0918 64.2799 82.9933 66.9883C79.3584 70.1699 79.689 77.7144 89.8496 71.1754C100.012 64.6348 99.7826 49.1211 99.7826 49.1211C100.557 45.7119 99.1 43.9314 97.9596 42.8594ZM55.592 31.2477C55.592 31.2477 58.4142 36.8934 61.708 38.7754C53.7101 43.4779 50.4178 35.0115 55.592 31.2477ZM67.9771 41.2291C71.6926 40.468 77.5597 38.6162 77.5597 38.6162C79.3023 43.4068 72.7693 49.5045 67.9771 41.2291Z" fill="url(#paint0_linear_23_160)" stroke="#232323"/>
</g>
</g>
</g>
<defs>
<linearGradient id="paint0_linear_23_160" x1="95" y1="24" x2="-48" y2="102" gradientUnits="userSpaceOnUse">
<stop stop-color="#CF69FF"/>
<stop offset="1" stop-color="#101010"/>
</linearGradient>
<clipPath id="clip0_23_160">
<rect width="100" height="100" fill="white"/>
</clipPath>
</defs>
</svg>
